<?xml version="1.0" standalone="no"?>
<!DOCTYPE svg PUBLIC "-//W3C//DTD SVG 20010904//EN"
 "http://www.w3.org/TR/2001/REC-SVG-20010904/DTD/svg10.dtd">
<svg version="1.0" xmlns="http://www.w3.org/2000/svg"
 width="300.000000pt" height="300.000000pt" viewBox="0 0 300.000000 300.000000"
 preserveAspectRatio="xMidYMid meet">
<metadata>
Created by potrace 1.10, written by Peter Selinger 2001-2011
</metadata>
<g transform="translate(0.000000,300.000000) scale(0.100000,-0.100000)"
fill="#f3f3f3" stroke="none">
<path d="M1425 2983 c-629 -82 -1129 -520 -1280 -1123 -198 -794 286 -1604
1082 -1806 274 -69 598 -55 860 37 334 118 569 315 693 582 105 227 140 420
105 585 -20 95 -34 124 -59 120 -17 -2 -24 -15 -34 -63 -63 -290 -152 -459
-341 -645 -201 -198 -432 -305 -709 -329 -468 -41 -920 208 -1134 624 -89 175
-128 336 -128 536 0 573 410 1051 980 1145 133 22 332 14 461 -19 194 -50 313
-114 387 -207 24 -30 96 -108 160 -173 97 -98 130 -125 196 -158 87 -43 103
-46 146 -24 54 28 64 79 31 162 -10 26 -24 89 -30 138 -8 62 -21 110 -42 152
-26 54 -41 71 -111 122 -102 74 -218 132 -429 215 -186 73 -280 100 -419 121
-86 13 -309 18 -385 8z m1291 -531 c34 -23 20 -82 -21 -82 -26 0 -55 24 -55
45 0 32 49 56 76 37z"/>
<path d="M1505 2321 c-53 -24 -111 -90 -126 -143 -8 -29 -10 -114 -7 -264 l4
-221 -245 -7 c-208 -7 -250 -10 -280 -26 -75 -38 -121 -111 -121 -190 0 -64
20 -112 62 -151 70 -65 68 -64 341 -61 l247 3 0 -224 c0 -260 8 -301 67 -359
87 -84 204 -90 290 -15 68 60 73 82 73 355 l0 242 183 1 c293 1 335 7 395 63
87 78 87 234 0 312 -62 57 -74 59 -334 56 l-241 -4 -6 108 c-4 59 -7 168 -7
243 0 111 -4 143 -19 176 -48 104 -174 153 -276 106z"/>
</g>
</svg>
